<svg xmlns="http://www.w3.org/2000/svg" width="144" height="33" fill="none"><path fill="#EDEDF0" d="M8.89 25.682c3.116 0 4.688-1.61 5.373-2.705h.309c.136 1.164.958 2.26 2.566 2.26h3.045v-3.425h-.786c-.548 0-.822-.308-.822-.786V7.296h-4.04v2.19h-.306c-.787-1.095-2.43-2.636-5.442-2.636-4.79 0-8.35 3.971-8.35 9.415s3.627 9.417 8.453 9.417m.718-3.903c-2.84 0-5.063-2.09-5.063-5.479 0-3.322 2.155-5.58 5.03-5.58 2.738 0 5.03 2.02 5.03 5.58 0 3.047-1.952 5.479-4.997 5.479M22.57 32.194h4.038v-9.217h.307c.753 1.096 2.362 2.705 5.545 2.705 4.79 0 8.282-4.04 8.282-9.417 0-5.41-3.73-9.415-8.556-9.415-3.08 0-4.587 1.677-5.306 2.602h-.307V7.295h-4.004zm9.035-10.313c-2.773 0-5.066-2.054-5.066-5.616 0-3.047 1.951-5.614 4.997-5.614 2.841 0 5.064 2.226 5.064 5.614 0 3.322-2.155 5.616-4.995 5.616m11.221 10.313h4.04v-9.217h.307c.753 1.096 2.361 2.705 5.543 2.705 4.79 0 7.949-4.04 7.949-9.417 0-5.41-3.398-9.415-8.223-9.415-3.08 0-4.586 1.677-5.304 2.602h-.309V7.295h-4.003zm9.035-10.313c-2.773 0-5.065-2.054-5.065-5.616 0-3.047 1.95-5.614 4.996-5.614 2.841 0 5.066 2.226 5.066 5.614 0 3.322-2.157 5.616-4.997 5.616m14.144 3.772h5.714l3.251-14.073h.207l3.25 14.073h5.682l4.548-17.941h-4.07l-3.25 14.107h-.31L77.776 7.71h-5.373l-3.286 14.11h-.307L65.593 7.71H61.28zm24.699 0h4.039v-8.867c0-3.39 1.572-5.48 4.516-5.48h1.779v-4.04h-1.334c-2.294 0-4.04 1.576-4.723 3.082h-.274V7.712h-4.003zm30.375 0h3.149v-3.595h-3.114c-1.232 0-1.746-.548-1.746-1.814v-8.972h5.065v-3.56h-5.065V2.678h-3.832v5.034h-3.354v3.56h3.114v9.006c0 3.8 2.292 5.375 5.783 5.375m13.983.029c3.73 0 7.016-1.85 8.179-5.58l-3.696-.892c-.651 1.986-2.532 3.014-4.517 3.014-2.944 0-4.894-1.918-4.929-4.93h13.588v-1.131c0-5.342-3.32-9.313-8.796-9.313-4.826 0-8.966 3.8-8.966 9.45 0 5.479 3.661 9.382 9.137 9.382m-4.928-11.334c.239-2.156 2.19-3.972 4.757-3.972 2.464 0 4.484 1.541 4.689 3.972z"/><path fill="#EDEDF0" fill-rule="evenodd" d="M110.384 25.653h-4.039V11.272h-3.147v-3.56h7.186z" clip-rule="evenodd"/><path fill="#EDEDF0" d="M108.066 5.22c1.472 0 2.566-1.095 2.566-2.534 0-1.402-1.094-2.499-2.566-2.499-1.473 0-2.567 1.096-2.567 2.5 0 1.438 1.094 2.534 2.567 2.534"/></svg>