<svg xmlns="http://www.w3.org/2000/svg" width="21" height="22" fill="none"><g clip-path="url(#a)"><path fill="url(#b)" d="m17.538 3.52-2.59 2.53a.52.52 0 0 1-.63.073 6.3 6.3 0 0 0-3.382-.862 6.26 6.26 0 0 0-3.318 1.074c-.6.408-1.122.917-1.54 1.504a5.93 5.93 0 0 0-1.1 3.24 5.9 5.9 0 0 0 .88 3.304.49.49 0 0 1-.075.613l-2.59 2.529a.51.51 0 0 1-.4.147.52.52 0 0 1-.376-.202 10.36 10.36 0 0 1-2.06-6.486A10.38 10.38 0 0 1 2.782 4.62a10.6 10.6 0 0 1 1.54-1.504A10.94 10.94 0 0 1 10.84.75c2.38-.064 4.715.643 6.64 2.01a.5.5 0 0 1 .21.367.49.49 0 0 1-.151.394"/><path fill="#fff" d="m17.535 19.03-2.59-2.53a.52.52 0 0 0-.629-.073c-.96.566-2.06.865-3.182.865a6.3 6.3 0 0 1-3.183-.865.52.52 0 0 0-.63.074l-2.59 2.528a.5.5 0 0 0-.155.397.5.5 0 0 0 .212.372 10.96 10.96 0 0 0 6.344 2.015c2.28 0 4.5-.706 6.344-2.015a.5.5 0 0 0 .214-.37.5.5 0 0 0-.155-.399M11.138 14.283c1.702 0 3.081-1.347 3.081-3.008s-1.38-3.008-3.08-3.008c-1.702 0-3.081 1.347-3.081 3.008s1.379 3.008 3.08 3.008"/></g><defs><linearGradient id="b" x1="15.104" x2="-6.214" y1="-.797" y2="21.036" gradientUnits="userSpaceOnUse"><stop stop-color="#17CCFC"/><stop offset=".5" stop-color="#5D31FF"/><stop offset="1" stop-color="#F35AFF"/></linearGradient><clipPath id="a"><path fill="#fff" d="M.354.746h20.013v21.066H.354z"/></clipPath></defs></svg>