<svg xmlns="http://www.w3.org/2000/svg" width="107" height="27" fill="none"><path fill="#fff" d="M105.997 23.438a2.264 2.264 0 0 1-2.295 2.293c-1.298 0-2.309-1.008-2.309-2.293 0-1.284 1.024-2.265 2.309-2.265s2.295 1.008 2.295 2.265m-4.03 0c0 1.009.738 1.81 1.749 1.81s1.708-.801 1.708-1.796c0-.994-.724-1.823-1.721-1.823-.996 0-1.735.815-1.735 1.81zm1.381 1.188h-.52v-2.265c.204-.041.492-.07.861-.07.424 0 .614.07.779.167a.63.63 0 0 1 .218.497c0 .25-.191.443-.463.525v.028c.217.082.341.248.409.552.068.345.109.484.164.566h-.56c-.068-.082-.11-.29-.178-.552-.041-.249-.177-.36-.465-.36h-.245v.913m.013-1.284h.245c.287 0 .519-.096.519-.331 0-.208-.149-.347-.478-.347-.136 0-.232.014-.286.03zM17.948.513a1.6 1.6 0 0 0-1.17-.48c-.462 0-.859.162-1.168.48-.31.317-.462.724-.462 1.209V9.82C13.558 8.49 11.723 7.82 9.636 7.82q-3.641-.002-6.22 2.664C1.696 12.256.843 14.399.843 16.913s.86 4.65 2.573 6.428c1.719 1.772 3.788 2.664 6.22 2.664s4.478-.886 6.22-2.664c1.719-1.754 2.572-3.896 2.572-6.428V1.722c0-.485-.158-.892-.48-1.21m-3.232 18.59v.013a5.8 5.8 0 0 1-1.175 1.807 5.6 5.6 0 0 1-1.748 1.233 5.1 5.1 0 0 1-2.151.455c-.766 0-1.497-.15-2.169-.455a5.5 5.5 0 0 1-1.742-1.227 5.9 5.9 0 0 1-1.169-1.807 5.7 5.7 0 0 1-.432-2.21q.002-1.167.432-2.208a5.61 5.61 0 0 1 2.91-3.034 5.2 5.2 0 0 1 2.17-.456c.777 0 1.478.15 2.15.455a5.55 5.55 0 0 1 1.749 1.233q.744.783 1.175 1.808.43 1.031.432 2.197c0 .778-.146 1.514-.432 2.197M90.588 13.424c-.427-1.078-1.077-2.054-1.93-2.928l-.011-.006c-1.737-1.771-3.813-2.663-6.22-2.663-2.408 0-4.502.885-6.22 2.663-1.72 1.772-2.573 3.915-2.573 6.428s.86 4.651 2.572 6.429c1.72 1.771 3.789 2.663 6.22 2.663 2.21 0 4.121-.736 5.747-2.208q.472-.504.474-1.216c0-.473-.152-.891-.463-1.209a1.57 1.57 0 0 0-1.169-.479c-.408.012-.771.15-1.08.425-.492.431-1.024.76-1.602.976a5.4 5.4 0 0 1-1.9.324 5.2 5.2 0 0 1-1.748-.293 5.6 5.6 0 0 1-1.537-.82 5.5 5.5 0 0 1-1.216-1.269 5.5 5.5 0 0 1-.783-1.634h12.434a1.6 1.6 0 0 0 1.169-.479c.322-.317.48-.724.48-1.209 0-1.257-.218-2.424-.643-3.495zM77.136 15.23a5.5 5.5 0 0 1 1.993-2.903 5.7 5.7 0 0 1 1.555-.82 5.3 5.3 0 0 1 1.743-.293q.895-.001 1.735.293a5.5 5.5 0 0 1 1.538.82c.468.354.876.772 1.221 1.27a5.6 5.6 0 0 1 .796 1.633zM105.868 8.964a3.06 3.06 0 0 0-1.105-.689 6.3 6.3 0 0 0-1.461-.347 12 12 0 0 0-1.484-.095q-1.57 0-2.953.52a9 9 0 0 0-2.56 1.49v-.322q.002-.699-.48-1.191a1.55 1.55 0 0 0-1.151-.497c-.45 0-.848.168-1.169.497s-.48.73-.48 1.19v14.803q-.001.699.48 1.191.478.495 1.169.497c.462 0 .835-.168 1.15-.497.323-.329.48-.73.48-1.19v-7.405a5.78 5.78 0 0 1 1.608-4.034 5.5 5.5 0 0 1 1.748-1.216 5.2 5.2 0 0 1 2.152-.449c.767 0 1.49.138 2.151.407q.394.18.69.18.343.001.643-.132.3-.134.521-.365.219-.232.35-.544.133-.306.135-.665 0-.698-.438-1.137h.005zM37.227 13.43a9 9 0 0 0-1.923-2.94c-1.736-1.771-3.811-2.663-6.22-2.663s-4.5.886-6.22 2.664c-1.719 1.771-2.572 3.914-2.572 6.428s.86 4.65 2.572 6.428c1.72 1.772 3.789 2.664 6.22 2.664 2.432 0 4.478-.886 6.22-2.664 1.719-1.754 2.572-3.896 2.572-6.428q-.018-1.884-.648-3.49zm-3.063 5.674v.012a5.8 5.8 0 0 1-1.175 1.807 5.6 5.6 0 0 1-1.748 1.233 5.1 5.1 0 0 1-2.15.455c-.766 0-1.497-.15-2.17-.455a5.5 5.5 0 0 1-1.741-1.227 5.9 5.9 0 0 1-1.169-1.807 5.7 5.7 0 0 1-.433-2.21q.001-1.167.433-2.208a5.611 5.611 0 0 1 2.91-3.034 5.2 5.2 0 0 1 2.17-.456c.776 0 1.478.15 2.15.455a5.6 5.6 0 0 1 1.748 1.233q.746.783 1.175 1.808.431 1.031.433 2.197c0 .778-.147 1.514-.433 2.197M72.394 9.515q-.002-.34-.134-.647a1.9 1.9 0 0 0-.351-.544 1.5 1.5 0 0 0-.52-.365 1.7 1.7 0 0 0-.643-.132q-.491-.001-.877.258L60.481 14.4V1.734q.002-.717-.479-1.21a1.55 1.55 0 0 0-1.151-.496c-.45 0-.848.168-1.17.497a1.66 1.66 0 0 0-.479 1.21V24.3q-.001.7.48 1.203c.32.335.706.502 1.169.502.462 0 .836-.167 1.151-.502q.481-.503.48-1.203v-5.86l1.917-1.3 7.254 8.423q.44.438 1.1.436c.227 0 .444-.042.642-.131.199-.084.374-.21.52-.365q.219-.231.351-.545c.088-.203.134-.425.134-.646q0-.665-.456-1.185l-6.752-7.859 6.576-4.417q.628-.44.626-1.347v.012zM44.599 12.885a5.5 5.5 0 0 1 1.76-1.216 5.2 5.2 0 0 1 2.15-.449q1.034 0 1.919.359c.584.24 1.146.593 1.677 1.053q.473.387 1.07.389c.473 0 .859-.162 1.169-.485q.464-.487.462-1.215c0-.485-.188-.934-.567-1.28q-2.422-2.21-5.73-2.21-3.639-.002-6.219 2.664c-1.719 1.771-2.572 3.914-2.572 6.428s.86 4.65 2.572 6.428c1.72 1.772 3.788 2.664 6.22 2.664q3.299 0 5.729-2.21c.345-.358.52-.771.52-1.25s-.152-.892-.461-1.21a1.57 1.57 0 0 0-1.17-.478 1.73 1.73 0 0 0-1.034.358 5.6 5.6 0 0 1-1.666 1.048 5.1 5.1 0 0 1-1.917.347 5.2 5.2 0 0 1-2.152-.449 5.7 5.7 0 0 1-1.76-1.215 5.6 5.6 0 0 1-1.186-1.807 5.8 5.8 0 0 1-.433-2.227q.001-1.185.433-2.227a5.6 5.6 0 0 1 1.187-1.807v-.006z"/></svg>