<svg xmlns="http://www.w3.org/2000/svg" width="95" height="87" fill="none"><path fill="#fff" d="M86.461 87c-9.864-7.03-23.375-11.38-38.293-11.38-14.895 0-28.406 4.35-38.27 11.38z"/><path fill="url(#a)" d="M90.745 82.934c-1.955.264-28.011 0-28.011 0l-.615-2.724-2.373-10.721s9.6.483 9.008-.242c-.594-.703-1.648-11.732-6.987-13.401-5.338-1.67-13.599-1.912-13.599-1.912V32.975l7.624-5.119c3.69 4.307 23.375 15.27 25.77 20.52 2.395 5.229 11.798 18.564 12.654 23.793.88 5.25-1.516 10.523-3.47 10.765"/><path fill="url(#b)" d="M90.745 82.935c-1.955.263-28.011 0-28.011 0l-.615-2.725c4.833-.197 11.907-.57 18.41-1.12 11.292-.967 13.687-6.92 13.687-6.92.879 5.25-1.516 10.523-3.471 10.764" style="mix-blend-mode:multiply"/><path fill="url(#c)" d="M86.461 69.864s-5.888-12.808-11.863-16.082l1.889 14.72z" style="mix-blend-mode:multiply"/><path fill="#00042D" d="M74.597 71.115s8.239-2.549 15.686 1.142c0 0-1.89-3.735-9.82-5.36 0 0-5.053-16.632-11.029-17.4-5.975-.791-6.283 22.76-6.283 22.76z"/><path fill="url(#d)" d="M38.612 27.856c-3.691 4.307-23.376 15.27-25.77 20.52C10.447 53.605 1.044 66.94.187 72.169c-.879 5.25 1.516 10.523 3.471 10.765 1.956.264 28.011 0 28.011 0l2.988-13.445s-9.6.483-9.007-.242c.593-.703 1.648-11.732 6.986-13.401 5.339-1.67 13.6-1.912 13.6-1.912V32.975z"/><path fill="url(#e)" d="M3.658 82.935c1.956.263 28.011 0 28.011 0l.616-2.725c-4.834-.197-11.908-.57-18.41-1.12C2.581 78.123.186 72.17.186 72.17c-.879 5.25 1.516 10.523 3.471 10.764" style="mix-blend-mode:multiply"/><path fill="url(#f)" d="M7.942 69.864s5.887-12.808 11.863-16.082l-1.89 14.72z" style="mix-blend-mode:multiply"/><path fill="#00042D" d="M20.508 71.115s-8.238-2.549-15.686 1.142c0 0 1.89-3.735 9.798-5.36 0 0 5.053-16.632 11.051-17.4 5.976-.791 6.261 22.76 6.261 22.76z"/><path fill="url(#g)" d="M66.996 27.067c-.285 6.217-1.362 19.333-5.734 22.892-3.273 2.659-9.205.989-13.643.989-5.185 0-10.435 2.504-13.907-.989-3.515-3.515-5.228-17.443-5.47-22.892 3.405-7.294 10.809-12.369 19.377-12.369 8.59 0 15.994 5.075 19.377 12.37"/><path fill="url(#h)" d="M29.1 20.893c0 9.139 2.328 18.718 4.152 22.958 1.845 4.24 7.953 11.951 14.39 13.093 6.437 1.143 12.742-8.194 14.763-13.73 3.296-8.92 3.603-23.552 3.603-23.552s-10.501-9.557-20.321-8.656c-9.799.879-16.587 9.886-16.587 9.886" style="mix-blend-mode:multiply"/><path fill="#00042D" d="M33.075 18.653c0 7.074 1.824 14.478 3.274 17.752 1.428 3.295 5.47 10.15 11.27 10.15 5.12 0 9.996-6.35 11.578-10.612 2.593-6.92 2.834-18.256 2.834-18.256s-8.238-7.382-15.928-6.701c-7.71.68-13.028 7.667-13.028 7.667"/><path fill="url(#i)" d="M47.62 0c-7.14 0-19.4 14.764-19.4 26.078q0 .505.022.988c3.406-7.293 10.81-12.368 19.378-12.368 8.59 0 15.993 5.075 19.377 12.368q.022-.483.022-.988C67.019 14.764 55 0 47.619 0"/><path fill="#fff" d="M70.93 81.748H24.31a4.235 4.235 0 0 1-4.218-3.889l-2.636-30.296a4.24 4.24 0 0 1 4.218-4.613h51.892c2.504 0 4.438 2.13 4.24 4.613L75.17 77.86a4.256 4.256 0 0 1-4.24 3.889"/><path fill="url(#j)" d="M70.93 83.066H24.31a4.235 4.235 0 0 1-4.218-3.888l-2.636-30.296a4.24 4.24 0 0 1 4.218-4.614h51.892c2.504 0 4.438 2.131 4.24 4.614L75.17 79.178a4.256 4.256 0 0 1-4.24 3.888"/><g style="mix-blend-mode:multiply"><path fill="url(#k)" d="M24.244 44.268h-2.57a4.24 4.24 0 0 0-4.218 4.614l2.636 30.296a4.235 4.235 0 0 0 4.218 3.888h1.824z"/><path fill="url(#l)" d="M73.565 44.268h-2.57l-1.89 38.798h1.824a4.256 4.256 0 0 0 4.24-3.888l2.636-30.296c.198-2.483-1.735-4.614-4.24-4.614"/></g><defs><linearGradient id="a" x1="7.541" x2="66.96" y1="84.704" y2="-24.933" gradientUnits="userSpaceOnUse"><stop stop-color="#FF00C1"/><stop offset="1" stop-color="#F4AC24"/></linearGradient><linearGradient id="b" x1="69.876" x2="79.984" y1="86.585" y2="64.365" gradientUnits="userSpaceOnUse"><stop stop-color="#F4D63B" stop-opacity="0"/><stop offset="1" stop-color="#5C1CB2"/></linearGradient><linearGradient id="c" x1="94.739" x2="90.877" y1="50.432" y2="73.054" gradientUnits="userSpaceOnUse"><stop stop-color="#F4D63B" stop-opacity="0"/><stop offset="1" stop-color="#5C1CB2"/></linearGradient><linearGradient id="d" x1="-23.024" x2="18.107" y1="52.199" y2="-23.695" gradientUnits="userSpaceOnUse"><stop stop-color="#FF00C1"/><stop offset="1" stop-color="#F4AC24"/></linearGradient><linearGradient id="e" x1="24.528" x2="14.419" y1="86.585" y2="64.365" gradientUnits="userSpaceOnUse"><stop stop-color="#F4D63B" stop-opacity="0"/><stop offset="1" stop-color="#5C1CB2"/></linearGradient><linearGradient id="f" x1="-.336" x2="3.526" y1="50.432" y2="73.054" gradientUnits="userSpaceOnUse"><stop stop-color="#F4D63B" stop-opacity="0"/><stop offset="1" stop-color="#5C1CB2"/></linearGradient><linearGradient id="g" x1="-3.033" x2="44.942" y1="75.394" y2="-13.128" gradientUnits="userSpaceOnUse"><stop stop-color="#FF00C1"/><stop offset="1" stop-color="#F4AC24"/></linearGradient><linearGradient id="h" x1="14.2" x2="18.547" y1="55.264" y2="13.033" gradientUnits="userSpaceOnUse"><stop stop-color="#F4D63B" stop-opacity="0"/><stop offset="1" stop-color="#5C1CB2"/></linearGradient><linearGradient id="i" x1="-2.753" x2="44.607" y1="75.509" y2="-11.879" gradientUnits="userSpaceOnUse"><stop stop-color="#FF00C1"/><stop offset="1" stop-color="#F4AC24"/></linearGradient><linearGradient id="j" x1="75.327" x2="52.238" y1="43.74" y2="103.267" gradientUnits="userSpaceOnUse"><stop stop-color="#A76DFC"/><stop offset="1" stop-color="#5C1CB2"/></linearGradient><linearGradient id="k" x1="109.753" x2="108.016" y1="48.299" y2="85.077" gradientUnits="userSpaceOnUse"><stop stop-color="#fff" stop-opacity="0"/><stop offset="1" stop-color="#5C1CB2"/></linearGradient><linearGradient id="l" x1="161.315" x2="159.587" y1="50.64" y2="87.217" gradientUnits="userSpaceOnUse"><stop stop-color="#fff" stop-opacity="0"/><stop offset="1" stop-color="#5C1CB2"/></linearGradient></defs></svg>