<svg xmlns="http://www.w3.org/2000/svg" width="123" height="87" fill="none"><path fill="#00042D" fill-rule="evenodd" d="M40.384 4.992c-1.71 2.653-2.496 5.981-3.26 9.197-.563 2.294-2.16 10.186-2.34 16.055q-.517.112-1.056.225a35.4 35.4 0 0 0-5.262 1.597l-.765.314c-.45.203-.877.405-1.259.608l-.023.022h-.022c-.54.315-2.159 1.462-5.487 5.712l-.022.022-.023.023c-3.148 4.025-6.903 9.556-11.108 16.482C.65 70.203-.159 75.734.02 78.613v.022q.023.225.045.405c.405 3.463 3.036 5.914 7.106 6.61C9.87 86.529 13.22 87 16.908 87c1.439 0 2.945-.09 4.475-.225.787-.067 1.709-.157 2.72-.247 9.445-.832 27.186-2.249 27.366-2.271l.742-.068.608-.45c9.691-7.398 10.186-8.792 10.433-9.466l1.147-3.148-3.35-.27c-.09 0-9.49-.742-25.05-2.811-.518-.067-1.282-.09-2.249-.09-1.754 0-4.857.112-8.297.517q.427-.158.877-.27c2.338-.674 4.362-2.203 5.711-4.272 2.609-4.07 4.07-7.218 4.475-9.624.09-.562.36-2.226-.675-8.005h.203c.787.09 1.754.18 2.81.18 6.746 0 11.536-4.183 14.617-12.773 2.428-6.836 5.15-11.153 8.072-12.84 1.012-.584 2.339-.877 3.935-.877q.54 0 1.102.045c.945.068 1.8.225 2.496.383a7.4 7.4 0 0 0-1.799 3.777c-.337 2.451-.9 4.678-1.416 5.87-.562 1.236-.9 2.36-1.192 3.35-.517 1.731-.832 2.676-1.776 3.53-2.811 2.586-4.925 3.913-6.32 3.913-.337 0-.651-.068-1.123-.225l-4.385-1.484 1.079 4.497c.09.315.877 3.193 4.632 4.205h.023c1.012.27 2.046.405 3.058.405.09 0 .584.022 3.126.18a3.643 3.643 0 0 1 3.395 3.463c.54 12.592-.023 16.1-.247 16.954-.495 1.125-4.273 8.815-5.78 11.446-.427.765-.899 1.53-1.416 2.339L56.46 86.55h15.516l.157-2.406c0-.022.135-2.046.27-5.037 3.755 3.058 6.634 5.352 6.679 5.397l1.147.922 1.394-.54c.135-.067 3.53-1.416 6.948-2.945 2.046-.945 3.688-1.754 4.835-2.429 1.326-.742 3.755-2.136 3.148-4.497-.405-1.642-6.319-10.951-8.14-13.784-2.406-3.756-8.365-12.885-11.58-16.573-1.373-1.552-2.767-2.9-4.25-4.093a35 35 0 0 0 3.575-6.116c1.798-3.867 3.103-10.59 2.158-13.784v-.045l-.022-.022s-.068-.248-.225-.675a49 49 0 0 0-1.102-2.72c-1.034-2.362-2.451-5.555-4.7-7.759C66.288 3.643 57.968.112 50.008 0h-.225c-4.138 0-7.286 1.664-9.4 4.992m9.601-2.451c7.623.112 15.314 3.688 20.508 8.725 1.889 1.844 3.193 4.79 4.137 6.948a50 50 0 0 1 1.035 2.586c.135.36.202.585.202.585.675 2.293-.27 8.23-2.024 12.007-.697 1.507-2.36 4.857-4.947 7.668 2.092 1.327 4.048 3.013 6.027 5.284C80.005 52.146 93.72 74.16 94.08 75.623c.36 1.439-13.402 6.88-13.402 6.88s-5.037-4.024-10.568-8.567c-.248 5.577-.517 10.052-.517 10.052h-8.5q.764-1.192 1.461-2.429c1.642-2.833 5.87-11.468 6.004-11.85.855-2.833.63-11.94.36-17.922-.135-3.148-2.609-5.666-5.757-5.891-1.551-.09-2.945-.18-3.305-.18-.765 0-1.574-.113-2.429-.315-2.406-.675-2.81-2.361-2.81-2.361.607.202 1.236.36 1.956.36 1.799 0 4.137-.967 8.05-4.565 2.294-2.136 2.136-4.587 3.553-7.713.652-1.439 1.26-3.912 1.641-6.543.338-2.294 2.272-3.936 4.498-3.936q.495 0 1.011.113a9.64 9.64 0 0 0-3.62-2.249c-.45-.157-2.473-.81-4.924-1.012q-.63-.045-1.305-.044c-1.753 0-3.62.292-5.216 1.214-4.902 2.833-7.87 10.5-9.197 14.189-3.44 9.624-8.365 11.085-12.21 11.085-1.485 0-2.789-.224-3.8-.27h-.09c-.968 0-1.755.743-1.822 1.665q-.023.225.023.472c.472 2.518 1.101 6.431.831 8.095-.382 2.339-2.113 5.554-4.115 8.657a7.67 7.67 0 0 1-4.25 3.193c-2.27.63-4.407 1.484-6.093 2.586-.945.585-5.172 3.26-6.499 5.914 4.655-2.833 15.876-3.755 20.71-3.755.855 0 1.507.022 1.911.09 15.808 2.091 25.208 2.833 25.208 2.833-.495 1.35-9.602 8.298-9.602 8.298s-17.81 1.439-27.389 2.27c-1.011.09-1.933.18-2.743.248q-2.204.203-4.227.203c-3.598 0-6.724-.45-9.13-1.26-2.63-.404-4.88-1.731-5.172-4.43l-.045-.314c-.224-3.463 2.114-9.917 9.377-21.857 4.88-8.028 8.455-13.065 10.929-16.235l.045-.045c3.373-4.295 4.744-5.06 4.744-5.06.293-.157.652-.337 1.08-.517q.315-.135.674-.27.36-.157.765-.292a34 34 0 0 1 4.115-1.214q.495-.113 1.012-.203h.022a2.47 2.47 0 0 0 2.001-2.338c.158-5.397 1.664-13.065 2.272-15.628C41.08 8.634 42.565 2.54 49.783 2.54z" clip-rule="evenodd"/><path fill="url(#a)" d="m2.562 78.432.045.315c.292 2.698 2.541 4.025 5.172 4.43 3.306 1.101 8.005 1.551 13.357 1.056.81-.067 1.731-.157 2.743-.247 9.58-.832 27.389-2.271 27.389-2.271s9.107-5.712 9.602-7.06c0 0-1.327-.293-3.823-.743a323 323 0 0 0-6.656-1.147 443 443 0 0 0-14.729-2.181c-2.586-.36-17.157.337-22.621 3.665 1.327-2.653 5.554-5.329 6.498-5.936 1.687-1.08 3.823-1.934 6.094-2.564a7.67 7.67 0 0 0 4.25-3.193c2.002-3.103 3.733-6.318 4.115-8.657.27-1.664-.36-5.577-.832-8.095a1.7 1.7 0 0 1-.022-.472c.09-.945.9-1.71 1.911-1.664 3.643.18 11.243 2.518 16.01-10.816 1.327-3.688 4.295-11.356 9.197-14.19 2.002-1.146 4.408-1.326 6.521-1.168 2.451.202 4.475.854 4.925 1.012a9.64 9.64 0 0 1 3.62 2.248 4.8 4.8 0 0 0-1.012-.112c-2.226 0-4.16 1.641-4.497 3.935-.382 2.63-.99 5.104-1.641 6.543-1.417 3.126-1.26 5.577-3.553 7.713-5.465 5.037-7.893 4.925-10.007 4.205 0 0 .405 1.687 2.811 2.361.854.203 1.664.315 2.429.315.36 0 1.754.09 3.305.18 3.148.225 5.622 2.743 5.757 5.891.27 5.982.494 15.089-.36 17.922-.135.382-4.362 9.017-6.004 11.85a50 50 0 0 1-1.462 2.429h8.5s.27-4.475.517-10.052a1154 1154 0 0 0 10.569 8.568s13.762-5.442 13.402-6.881c-.36-1.462-14.077-23.476-19.158-29.277-1.98-2.272-3.936-3.958-6.027-5.285 2.586-2.81 4.25-6.16 4.947-7.667 1.754-3.778 2.699-9.715 2.024-12.008 0 0-.067-.225-.203-.585a50 50 0 0 0-1.034-2.586c-.944-2.159-2.249-5.104-4.137-6.948-5.195-5.037-12.885-8.612-20.508-8.725-7.398-.112-8.905 6.026-10.389 12.233-.607 2.563-2.113 10.231-2.27 15.628a2.47 2.47 0 0 1-2.002 2.338h-.023q-.517.09-1.011.203a34 34 0 0 0-4.115 1.214q-.405.135-.765.292-.36.135-.675.27c-.427.18-.787.36-1.079.517 0 0-1.372.765-4.745 5.06l-.045.045c-2.473 3.17-6.048 8.207-10.928 16.235-7.263 11.94-9.602 18.394-9.377 21.857"/><path fill="url(#b)" d="M19.539 68.336c1.686-1.102 3.823-1.957 6.094-2.586a7.67 7.67 0 0 0 4.25-3.193c2-3.104 3.732-6.319 4.115-8.658.27-1.664-.36-5.576-.832-8.095a1.7 1.7 0 0 1-.023-.472c-.63 2.046-.607 5.105-1.26 6.97-3.732 11.2-11.67 15.224-12.344 16.034" style="mix-blend-mode:multiply"/><path fill="url(#c)" d="m2.562 78.433.045.315c.292 2.698 2.54 4.025 5.172 4.43 3.305 1.102 8.005 1.552 13.357 1.057.81-.068 1.731-.158 2.743-.248 9.58-.831 27.388-2.27 27.388-2.27s3.553-4.813 5.78-7.803a323 323 0 0 0-6.657-1.147c-2.068 2.923-5.149 5.014-11.625 5.891-9.422 1.282-16.393 2.631-24.668 1.777-4.407-.45-7.645-2.451-7.308-5.195 1.102-9.691 10.996-27.838 16.078-34.899-2.474 3.17-6.049 8.208-10.928 16.236-7.263 11.94-9.602 18.393-9.377 21.856" style="mix-blend-mode:multiply"/><path fill="#fff" d="M77.959 84.256H33.818a1.056 1.056 0 0 1-1.057-1.057v-.652c0-.585.472-1.035 1.057-1.035h44.14c.585 0 1.058.45 1.058 1.035v.652c0 .584-.473 1.056-1.057 1.056"/><path fill="#fff" d="M68.626 84.256h-45.49a.75.75 0 0 1-.742-.743v-.63c0-.764.63-1.37 1.395-1.37h44.86v2.72q0 .022-.023.022"/><path fill="#fff" d="M68.626 84.256h-45.49a.75.75 0 0 1-.742-.743v-.63c0-.764.63-1.37 1.395-1.37h44.86v2.72q0 .022-.023.022"/><path fill="url(#d)" d="M102.761 84.256H50.772c-1.057 0-1.776-1.101-1.35-2.068L64.76 46.749c.247-.54.764-.877 1.371-.877h51.989a1.474 1.474 0 0 1 1.349 2.069l-15.336 35.416c-.247.54-.764.9-1.371.9"/><path fill="#fff" d="M102.761 84.256H50.772c-1.057 0-1.776-1.101-1.35-2.068L64.76 46.749c.247-.54.764-.877 1.371-.877h51.989a1.474 1.474 0 0 1 1.349 2.069l-15.336 35.416c-.247.54-.764.9-1.371.9"/><path fill="url(#e)" d="M105.302 84.256H53.313c-1.056 0-1.776-1.101-1.349-2.068L67.3 46.749c.247-.54.765-.877 1.372-.877h51.988a1.475 1.475 0 0 1 1.35 2.069l-15.336 35.416c-.248.54-.765.9-1.372.9"/><path fill="url(#f)" d="M54.618 43.04s1.26 2.383 4.273 1.776c6.07-1.192 9.916-5.577 11.985-11.086 1.281-3.396 1.731-6.454 2.181-8.725.495-2.653 2.271-4.25 2.271-4.25a4.8 4.8 0 0 0-1.012-.112c-2.226 0-4.16 1.641-4.497 3.935-.382 2.63-.99 5.104-1.642 6.543-1.416 3.126-1.259 5.577-3.552 7.713-5.465 5.037-7.893 4.925-10.007 4.205" style="mix-blend-mode:multiply"/><path fill="url(#g)" d="M35.055 43.668c3.643.18 11.243 2.518 16.01-10.816 1.327-3.688 4.295-11.356 9.197-14.189 2.001-1.147 4.407-1.327 6.521-1.17C53.493 14.93 50.863 24.735 45.511 34c-4.362 7.555-8.815 8.455-10.456 9.669" style="mix-blend-mode:multiply"/><path fill="url(#h)" d="M42.362 54.372c.158-2.788.293-5.644.27-7.375 0-.248.18-.45.427-.45.248 0 .45.18.45.427.023 1.777-.135 4.655-.27 7.443-.135 2.429-.247 4.97-.247 6.611 0 .225-.203.427-.45.427a.427.427 0 0 1-.427-.427c0-1.664.112-4.092.247-6.656"/><path fill="url(#i)" d="M53.988 47.852c0-.247.18-.45.427-.45s.45.18.45.428c.045 2.833-.09 6.004-.225 9.084-.068 1.372-.135 2.698-.18 3.958a.427.427 0 0 1-.427.427h-.023c-.225 0-.427-.225-.427-.45.045-1.281.112-2.608.18-3.98.135-3.058.27-6.206.225-9.017"/><defs><linearGradient id="a" x1="99.345" x2="82.687" y1="71.359" y2="-8.341" gradientUnits="userSpaceOnUse"><stop stop-color="#FF00C1"/><stop offset="1" stop-color="#F4AC24"/></linearGradient><linearGradient id="b" x1="44.917" x2="46.052" y1="70.798" y2="44.45" gradientUnits="userSpaceOnUse"><stop stop-color="#F4D63B" stop-opacity="0"/><stop offset="1" stop-color="#5C1CB2"/></linearGradient><linearGradient id="c" x1="1.733" x2="22.169" y1="52.923" y2="115.868" gradientUnits="userSpaceOnUse"><stop stop-color="#F4D63B" stop-opacity="0"/><stop offset="1" stop-color="#5C1CB2"/></linearGradient><linearGradient id="d" x1="74.974" x2="64.506" y1="41.92" y2="82.954" gradientUnits="userSpaceOnUse"><stop stop-color="#A76DFC"/><stop offset="1" stop-color="#5C1CB2"/></linearGradient><linearGradient id="e" x1="77.516" x2="67.048" y1="41.92" y2="82.954" gradientUnits="userSpaceOnUse"><stop stop-color="#A76DFC"/><stop offset="1" stop-color="#5C1CB2"/></linearGradient><linearGradient id="f" x1="92.775" x2="72.746" y1="51.214" y2="6.054" gradientUnits="userSpaceOnUse"><stop stop-color="#F4D63B" stop-opacity="0"/><stop offset="1" stop-color="#5C1CB2"/></linearGradient><linearGradient id="g" x1="42.021" x2="32.626" y1="6.149" y2="47.891" gradientUnits="userSpaceOnUse"><stop stop-color="#F4D63B" stop-opacity="0"/><stop offset="1" stop-color="#5C1CB2"/></linearGradient><linearGradient id="h" x1="-37.279" x2="-36.116" y1="48.686" y2="67.186" gradientUnits="userSpaceOnUse"><stop stop-color="#F4AC24"/><stop offset="1" stop-color="#FF00C1"/></linearGradient><linearGradient id="i" x1="-21.964" x2="-20.801" y1="47.721" y2="66.212" gradientUnits="userSpaceOnUse"><stop stop-color="#F4AC24"/><stop offset="1" stop-color="#FF00C1"/></linearGradient></defs></svg>