<svg xmlns="http://www.w3.org/2000/svg" width="19" height="18" fill="none"><path fill="#fff" d="M9.934 0a9 9 0 1 0 0 18 9 9 0 0 0 0-18m2.372 16.337h-.07a.39.39 0 0 1-.286-.105.39.39 0 0 1-.105-.279V14.9q.008-.526.008-1.062a2.8 2.8 0 0 0-.114-.771 1.37 1.37 0 0 0-.406-.657 6 6 0 0 0 1.528-.353 3 3 0 0 0 1.1-.723c.305-.32.532-.707.664-1.13a5.1 5.1 0 0 0 .225-1.597 3.1 3.1 0 0 0-.195-1.107 2.9 2.9 0 0 0-.597-.963q.084-.211.122-.436.037-.226.037-.453 0-.294-.067-.58a4 4 0 0 0-.166-.572.2.2 0 0 0-.083-.015h-.083q-.26.003-.505.083a4 4 0 0 0-.527.195 5 5 0 0 0-.496.257 9 9 0 0 0-.43.272 7.2 7.2 0 0 0-3.857 0q-.21-.141-.43-.272a5 5 0 0 0-.503-.256 3.4 3.4 0 0 0-.529-.196 1.7 1.7 0 0 0-.496-.083h-.083a.2.2 0 0 0-.082.015q-.106.28-.173.572-.06.286-.06.58 0 .227.038.453.036.224.12.436c-.26.28-.461.607-.594.964-.133.354-.2.73-.198 1.107-.01.538.064 1.075.22 1.59.135.422.362.81.662 1.137.312.316.687.563 1.1.723.49.188 1.003.307 1.525.357a1.4 1.4 0 0 0-.34.475 2.2 2.2 0 0 0-.15.558c-.275.132-.576.2-.88.202a1.34 1.34 0 0 1-.8-.225 2.2 2.2 0 0 1-.563-.618 2.3 2.3 0 0 0-.22-.286 2 2 0 0 0-.278-.258 1.4 1.4 0 0 0-.324-.18.9.9 0 0 0-.361-.075 1 1 0 0 0-.09.007.5.5 0 0 0-.122.015.3.3 0 0 0-.097.045.09.09 0 0 0-.045.075.25.25 0 0 0 .105.182q.104.083.174.128l.022.016q.15.115.287.25.127.11.225.247.102.134.173.286.083.15.173.347c.141.355.392.656.716.859.34.182.72.273 1.107.263q.196 0 .391-.023.194-.03.387-.068v1.308a.375.375 0 0 1-.4.39h-.047a7.714 7.714 0 1 1 4.743 0z"/></svg>