<svg xmlns="http://www.w3.org/2000/svg" width="130" height="15" fill="none"><path fill="#fff" fill-rule="evenodd" d="M30.85 10.714q.547-1.392.547-3.227 0-1.836-.558-3.227-.557-1.392-1.528-2.341A6.3 6.3 0 0 0 27.038.496 8 8 0 0 0 24.27.02q-1.427 0-2.717.475a6.4 6.4 0 0 0-2.273 1.423q-.983.949-1.56 2.34-.579 1.392-.579 3.228t.558 3.227 1.53 2.33a6.35 6.35 0 0 0 2.272 1.413q1.302.475 2.768.475a8.2 8.2 0 0 0 2.82-.475 6.14 6.14 0 0 0 2.263-1.413q.95-.938 1.498-2.33m-10.124-1.33a6.5 6.5 0 0 1-.258-1.897q0-1.03.258-1.887.258-.856.744-1.464.485-.609 1.188-.949.702-.34 1.611-.34.889 0 1.602.33.712.33 1.198.938.485.609.744 1.464.258.856.258 1.908 0 1.05-.258 1.897a4.3 4.3 0 0 1-.744 1.454 3.26 3.26 0 0 1-1.198.938q-.714.33-1.601.33-.91 0-1.612-.33a3.3 3.3 0 0 1-1.188-.938 4.3 4.3 0 0 1-.744-1.454" clip-rule="evenodd"/><path fill="#fff" d="M39.502 12.189q.682 0 1.126-.114.444-.112.713-.31.268-.195.372-.463a1.7 1.7 0 0 0 .103-.598q0-.701-.661-1.165-.662-.465-2.273-1a17 17 0 0 1-1.405-.567 5.2 5.2 0 0 1-1.26-.805 3.85 3.85 0 0 1-.909-1.176q-.351-.69-.351-1.68t.371-1.784q.373-.795 1.054-1.35.682-.558 1.653-.857.97-.299 2.19-.299 1.447 0 2.5.31t1.736.68l-.93 2.537a9 9 0 0 0-1.333-.547q-.734-.236-1.766-.237-1.158 0-1.663.32-.507.32-.507.98 0 .39.186.66.186.268.527.484t.786.392q.442.175.981.36 1.114.413 1.942.815.826.404 1.374.939.548.536.816 1.258t.268 1.752q0 2.001-1.405 3.104-1.404 1.104-4.235 1.104-.95 0-1.715-.114-.764-.114-1.353-.278a8 8 0 0 1-1.013-.35 8 8 0 0 1-.712-.352l.909-2.556q.64.35 1.58.628.94.279 2.304.279M59.342.352v2.743h-4.318v11.548H51.8V3.095h-4.319V.352zM62.922 14.643h3.224V.352h-3.224zM80.573 14.643a72 72 0 0 0-2.995-4.847 50 50 0 0 0-3.43-4.516v9.363h-3.182V.352h2.624q.681.68 1.508 1.67.825.99 1.684 2.114.857 1.124 1.704 2.33t1.591 2.32V.352h3.203v14.29zM95.083 2.827q-2.251 0-3.254 1.247t-1.002 3.413q0 1.05.247 1.908.249.855.744 1.474.496.618 1.24.96.744.34 1.735.34.537 0 .92-.021.382-.02.671-.083v-4.97h3.224v7.074q-.578.227-1.86.484-1.28.258-3.16.258-1.613 0-2.924-.495a6.1 6.1 0 0 1-2.242-1.444q-.93-.948-1.436-2.33-.507-1.38-.506-3.155 0-1.794.558-3.176.557-1.381 1.529-2.34A6.4 6.4 0 0 1 91.85.516 7.9 7.9 0 0 1 94.648.02a11.4 11.4 0 0 1 3.234.444 6.5 6.5 0 0 1 1.518.65l-.93 2.577a8.5 8.5 0 0 0-1.517-.608 6.5 6.5 0 0 0-1.87-.257M104.117 14.643V.352h9.669v2.701h-6.445v2.804h5.723v2.64h-5.723v3.444h6.921v2.702z"/><path fill="#fff" fill-rule="evenodd" d="M127.284 1.33Q125.569.187 122.346.187q-.888 0-2.014.083-1.126.082-2.179.288v14.086h3.222V9.424h1.591q.415.496.83 1.105a35 35 0 0 1 1.67 2.69q.403.722.798 1.424h3.602a37 37 0 0 0-.805-1.599 28 28 0 0 0-.899-1.567 35 35 0 0 0-.94-1.444q-.475-.69-.909-1.227 1.303-.536 1.994-1.474t.692-2.444q0-2.413-1.715-3.557m-5.382 1.62q.279-.021.63-.021 1.55 0 2.345.443.796.444.796 1.495 0 1.094-.785 1.547-.786.454-2.603.454h-.91V2.99z" clip-rule="evenodd"/><path fill="#fff" d="M9.593.467h3.242v14.241H9.593V8.667H4.147v6.041H.905V.468h3.242v5.445h5.446z"/></svg>