<svg xmlns="http://www.w3.org/2000/svg" width="62" height="31" fill="none"><path fill="#006CFF" fill-rule="evenodd" d="m40.3 10.398 19.45-1.323c1.31 0 2.245 1.323 1.497 2.267L47.594 30.23c-.374.189-.748.567-1.31.567H15.613a1.49 1.49 0 0 1-1.123-.756L.836 11.341c-.748-.943 0-2.455 1.31-2.266l19.45 1.323 8.23-9.067c.56-.755 1.87-.755 2.244 0l8.23 8.878zm4.114 17.376-12.718-4.722v4.722zm-14.214 0v-4.722l-12.718 4.722h12.905zm-1.496-5.666L15.799 26.83 6.447 13.609l22.444 8.31zm4.488 0 13.093 4.722 9.35-13.221-22.443 8.31zM30.2 20.975V5.298l-10.474 11.71L30.2 20.786zm1.496 0V5.298l10.66 11.71-10.66 3.778zm-15.15-5.1 2.432-2.644-11.97-.756zm28.803 0-2.431-2.644 11.783-.756z" clip-rule="evenodd"/></svg>