<svg xmlns="http://www.w3.org/2000/svg" width="30" height="15" fill="none"><g clip-path="url(#a)"><path fill="#006CFF" fill-rule="evenodd" d="m19.141 5.403 9.414-.599c.634 0 1.086.6.724 1.027l-6.608 8.558c-.18.086-.362.257-.633.257H7.193a.75.75 0 0 1-.315-.11.7.7 0 0 1-.228-.232L.042 5.83c-.362-.428 0-1.112.633-1.027l9.414.6 3.983-4.108c.272-.343.905-.343 1.086 0l3.983 4.022zm1.992 7.874-6.156-2.14v2.14zm-6.88 0v-2.14l-6.155 2.14h6.246zm-.724-2.567-6.246 2.139-4.526-5.99 10.863 3.765zm2.172 0 6.337 2.139 4.526-5.99-10.862 3.765zm-1.448-.514V3.093L9.184 8.399l5.07 1.711zm.724 0V3.093l5.16 5.306-5.16 1.711zm-7.332-2.31 1.177-1.199-5.793-.342zm13.94 0-1.177-1.199 5.703-.342z" clip-rule="evenodd"/></g><defs><clipPath id="a"><path fill="#fff" d="M.205.906H29.17V14.6H.205z"/></clipPath></defs></svg>