<svg xmlns="http://www.w3.org/2000/svg" width="114" height="26" fill="none"><path fill="#fff" fill-rule="evenodd" d="m11.06 20.96.559-.743c.373-.186.373-.558.373-.93s0-.744-.56-1.116c-.186-.372-.56-.558-1.119-.744a53 53 0 0 1-5.408-1.488l-2.051-1.302c-.746-.372-1.119-.93-1.492-1.488l-.56-2.232q0-1.395.56-2.232c.373-.744.933-1.488 1.678-1.86.56-.558 1.492-1.116 2.238-1.302a8.4 8.4 0 0 1 5.408 0c.746 0 1.492.372 2.238.93l1.492 1.488c.56.558.746 1.302.933 1.86l-3.917 1.116c0-.558-.56-1.116-1.119-1.488a3.74 3.74 0 0 0-2.237-.744 4.1 4.1 0 0 0-2.238.372l-.746.744-.373.93.373.93.932.744 1.12.372 1.118.372 3.73 1.116 2.424 1.302c.56.558.933 1.116 1.12 1.86.372.372.372 1.116.372 1.86 0 .93 0 1.86-.56 2.418-.372.744-.932 1.488-1.678 2.046s-1.678 1.115-2.61 1.301c-.933.372-2.052.558-3.17.558-1.866 0-3.358-.372-4.85-1.302-1.305-.93-2.237-1.86-2.797-3.347l3.73-1.488c.373.93.932 1.488 1.678 1.86.56.372 1.492.558 2.425.558 1.119 0 1.864-.372 2.797-.93zm18.648 4.092-3.543.745c-1.12 0-2.052 0-2.984-.559-.932-.372-1.678-1.116-2.238-2.045-.56-.93-.746-2.418-.746-4.278v-9.3h-3.543V5.337h.932c1.12 0 2.238-.186 2.798-1.302.373-.372.373-.93.373-2.232V.315h3.73v5.022h4.102V9.8H24.3v11.346l.932.93 1.492.186h2.238zM42.762 9.058l-.56-.372h-.932l-.56-.186a6.54 6.54 0 0 0-4.288 1.488l-1.12 1.488c-.372.558-.372 1.302-.372 1.86v12.462h-4.29V5.337h3.357l.746 2.418c.56-.93 1.306-1.488 2.238-1.86a7.5 7.5 0 0 1 3.543-.93l3.17.372-1.118 3.72zm10.63 16.554a10.65 10.65 0 0 1-5.789-1.729 10.6 10.6 0 0 1-3.908-4.595c-.56-1.302-.933-2.604-.933-4.092a10.4 10.4 0 0 1 1.676-5.648 10.44 10.44 0 0 1 4.478-3.838 10.28 10.28 0 0 1 7.646 0c1.12.372 2.238 1.116 2.984 2.046.932.93 1.678 2.232 2.051 3.72.56 1.674.746 3.348.746 5.58H47.238c0 .744.373 1.302.932 1.86a7.27 7.27 0 0 0 3.357 2.79l2.424.372a7.66 7.66 0 0 0 5.222-2.046l2.61 2.418a11.2 11.2 0 0 1-3.729 2.231c-1.305.558-2.984.93-4.662.93m-.746-17.112c-.56 0-1.305 0-1.865.372a5.96 5.96 0 0 0-2.797 2.604c-.373.558-.746 1.302-.746 1.86h10.63c0-.558 0-1.116-.373-1.86a5.03 5.03 0 0 0-2.04-2.293A5.05 5.05 0 0 0 52.46 8.5zm31.703-3.162V25.61h-3.357l-.746-2.79c-.56.93-1.492 1.673-2.61 2.045-1.12.558-2.239.744-3.358.744a9.9 9.9 0 0 1-7.273-2.975 10.6 10.6 0 0 1-3.056-7.44c0-2.784 1.098-5.457 3.057-7.44a10.26 10.26 0 0 1 7.272-2.976c1.12 0 2.238.372 3.17.744 1.12.372 2.052 1.116 2.798 1.86l.746-2.046h3.543zm-10.07 16.74 2.237-.558c.746-.372 1.492-.93 1.865-1.488a7.06 7.06 0 0 0 1.865-4.836 7.43 7.43 0 0 0-1.865-4.836c-.373-.558-1.119-1.116-1.865-1.488a5.23 5.23 0 0 0-4.662 0l-1.865 1.488a7.06 7.06 0 0 0-1.865 4.836 7.43 7.43 0 0 0 1.865 4.836l1.865 1.488c.746.372 1.492.558 2.424.558m17.343 3.533h-4.103V5.15h3.17l.933 1.86c.373-.557 1.119-1.115 1.865-1.487.56-.372 1.492-.744 2.424-.744a7.1 7.1 0 0 1 4.476 1.674l1.305 1.488c.373-.744 1.119-1.488 2.051-2.232a5.6 5.6 0 0 1 3.171-.93l2.424.372a6.71 6.71 0 0 1 4.103 3.72c.373 1.116.559 2.604.559 4.278V25.61h-3.73V13.148c0-1.86-.559-2.976-1.305-3.72-.559-.558-1.678-.93-2.797-.93-.933 0-1.865.372-2.425 1.116s-.932 1.86-.932 3.534V25.61h-3.916V13.148c0-1.86-.373-2.976-1.12-3.72a4.6 4.6 0 0 0-2.797-.93c-.932 0-1.678.372-2.237.93-.746.744-1.12 1.674-1.12 2.976V25.61" clip-rule="evenodd"/></svg>