<svg xmlns="http://www.w3.org/2000/svg" width="24" height="24" fill="none"><g clip-path="url(#a)"><path fill="#3178C6" d="M20.4 0H3.6A3.6 3.6 0 0 0 0 3.6v16.8A3.6 3.6 0 0 0 3.6 24h16.8a3.6 3.6 0 0 0 3.6-3.6V3.6A3.6 3.6 0 0 0 20.4 0"/><path fill="#fff" d="M10.922 13.313h3V11.39h-8.39v1.922h3v8.578h2.39zm3.937 8.109c.38.197.844.342 1.36.44a9 9 0 0 0 1.64.146c.563 0 1.078-.052 1.594-.16a4 4 0 0 0 1.313-.515c.38-.248.703-.563.89-.984s.333-.891.333-1.5c0-.427-.066-.797-.192-1.125a2.2 2.2 0 0 0-.563-.844 3.7 3.7 0 0 0-.843-.656 11 11 0 0 0-1.125-.563c-.31-.127-.563-.248-.844-.37a3.7 3.7 0 0 1-.61-.366 1.7 1.7 0 0 1-.398-.394.82.82 0 0 1-.14-.468q0-.24.126-.436c.085-.132.202-.24.352-.333q.225-.14.562-.216c.22-.051.464-.075.75-.075q.297 0 .61.044.323.045.656.136.328.09.656.23c.206.094.398.201.562.323v-2.203a5.8 5.8 0 0 0-1.171-.304 9.4 9.4 0 0 0-1.454-.099c-.562 0-1.078.061-1.593.178a3.7 3.7 0 0 0-1.313.563c-.38.253-.656.562-.89.984-.22.394-.329.844-.329 1.406 0 .704.202 1.313.61 1.782.403.515 1.031.89 1.828 1.265.323.131.61.263.89.39a4 4 0 0 1 .704.393c.201.136.36.286.468.445q.178.24.179.563 0 .224-.108.422a.9.9 0 0 1-.333.337c-.15.094-.333.169-.563.225a3.4 3.4 0 0 1-.796.08 4.3 4.3 0 0 1-1.5-.267 4.3 4.3 0 0 1-1.318-.724z"/></g><defs><clipPath id="a"><path fill="#fff" d="M0 0h24v24H0z"/></clipPath></defs></svg>