<svg xmlns="http://www.w3.org/2000/svg" width="16" height="16" fill="none"><path fill="#fff" d="m4.308 12.96.553.324a6.11 6.11 0 1 0-2.21-2.21l.323.553-.5 1.834zm-4.01 2.68 1.033-3.796a7.639 7.639 0 1 1 2.76 2.76zm4.88-11.224a2.4 2.4 0 0 1 .307-.003l.124.012c.121.014.255.088.3.19q.343.776.663 1.559c.048.116.02.265-.07.41q-.094.147-.202.284c-.086.11-.272.314-.272.314s-.075.09-.046.202c.01.043.046.105.078.157l.045.073c.195.326.458.657.78.968q.134.136.276.265a4.6 4.6 0 0 0 1.2.764h.003c.065.029.098.045.193.085q.07.03.146.05a.27.27 0 0 0 .28-.1c.553-.67.604-.712.608-.712a.37.37 0 0 1 .29-.096.4.4 0 0 1 .134.03c.406.186 1.07.476 1.07.476l.444.2c.075.035.143.12.145.202.003.05.008.133-.01.285a2.1 2.1 0 0 1-.143.56.9.9 0 0 1-.16.23 2.766 2.766 0 0 1-.348.289q-.143.09-.293.168a1.5 1.5 0 0 1-.636.176c-.142.007-.283.018-.425.01l-.434-.066a7.2 7.2 0 0 1-2.933-1.563c-.173-.152-.332-.315-.496-.478-.68-.676-1.193-1.406-1.505-2.095a2.65 2.65 0 0 1-.253-1.08A2.1 2.1 0 0 1 4.47 4.9c.056-.072.11-.147.2-.233a1 1 0 0 1 .224-.174.7.7 0 0 1 .284-.077z"/></svg>